<svg width="512" height="512" viewBox="0 0 512 512" fill="none" xmlns="http://www.w3.org/2000/svg">
<g clip-path="url(#clip0_3216_200)">
<path fill-rule="evenodd" clip-rule="evenodd" d="M0 35C0 15.67 15.67 0 35 0H477C496.33 0 512 15.67 512 35V477C512 496.33 496.33 512 477 512H35C15.67 512 0 496.33 0 477V35ZM121 433C121 416.431 134.431 403 151 403H361C377.569 403 391 416.431 391 433C391 449.569 377.569 463 361 463H151C134.431 463 121 449.569 121 433ZM407 283C407 299.569 420.431 313 437 313C453.569 313 467 299.569 467 283V73C467 56.4315 453.569 43 437 43C420.431 43 407 56.4315 407 73V283Z"/>
</g>
<defs>
<clipPath id="clip0_3216_200">
<rect width="512" height="512"/>
</clipPath>
</defs>
</svg>
